<svg xmlns="http://www.w3.org/2000/svg" xmlns:xlink="http://www.w3.org/1999/xlink" viewBox="0 0 512 512">
    <defs>
        <linearGradient id="a-dust" x1="99.45" y1="30.68" x2="232.64" y2="261.37" gradientUnits="userSpaceOnUse">
            <stop offset="0" stop-color="#f3f7fe"/>
            <stop offset="0.45" stop-color="#f3f7fe"/>
            <stop offset="1" stop-color="#deeafb"/>
        </linearGradient>
        <linearGradient id="b-dust" x1="6" y1="169.61" x2="18" y2="190.39" gradientUnits="userSpaceOnUse">
            <stop offset="0" stop-color="#fde68a"/>
            <stop offset="0.45" stop-color="#fde68a"/>
            <stop offset="1" stop-color="#fde171"/>
        </linearGradient>
        <linearGradient id="c-dust" x1="66" y1="169.61" x2="78" y2="190.39" xlink:href="#b-dust"/>
        <linearGradient id="d-dust" x1="38" y1="137.61" x2="50" y2="158.39" xlink:href="#b-dust"/>
        <linearGradient id="e-dust" x1="98" y1="137.61" x2="110" y2="158.39" xlink:href="#b-dust"/>
        <linearGradient id="f-dust" x1="70" y1="101.61" x2="82" y2="122.39" xlink:href="#b-dust"/>
        <linearGradient id="g-dust" x1="130" y1="101.61" x2="142" y2="122.39" xlink:href="#b-dust"/>
        <linearGradient id="h-dust" x1="102" y1="69.61" x2="114" y2="90.39" xlink:href="#b-dust"/>
        <linearGradient id="i-dust" x1="162" y1="69.61" x2="174" y2="90.39" xlink:href="#b-dust"/>
        <linearGradient id="j-dust" x1="134" y1="33.61" x2="146" y2="54.39" xlink:href="#b-dust"/>
        <linearGradient id="k-dust" x1="194" y1="33.61" x2="206" y2="54.39" xlink:href="#b-dust"/>
        <linearGradient id="l-dust" x1="166" y1="1.61" x2="178" y2="22.39" xlink:href="#b-dust"/>
        <linearGradient id="m-dust" x1="226" y1="1.61" x2="238" y2="22.39" xlink:href="#b-dust"/>
        <clipPath id="n-dust">
            <polygon points="0 0 512 0 0 512 0 0" fill="none"/>
        </clipPath>
        <symbol id="o-dust" viewBox="0 0 350 222">
            <!-- cloud -->
            <path d="M291,107c-.85,0-1.68.09-2.53.13A83.9,83.9,0,0,0,135.6,42.92,55.91,55.91,0,0,0,51,91a56.56,56.56,0,0,0,.8,9.08A60,60,0,0,0,63,219c1.35,0,2.67-.11,4-.2v.2H291a56,56,0,0,0,0-112Z" stroke="#e6effc" stroke-miterlimit="10" stroke-width="6" fill="url(#a-dust)"/>
        </symbol>
        <symbol id="p-dust" viewBox="0 0 244 192">
            <!-- dust-1 -->
            <circle cx="12" cy="180" r="12" fill="url(#b-dust)">
                <animate attributeName="opacity" values=".5; 1; .5" dur=".67s" begin="-1s" repeatCount="indefinite"/>
            </circle>

            <!-- dust-2 -->
            <circle cx="72" cy="180" r="12" fill="url(#c-dust)">
                <animate attributeName="opacity" values=".5; 1; .5" dur=".67s" begin="-1.08s" repeatCount="indefinite"/>
            </circle>

            <!-- dust-3 -->
            <circle cx="44" cy="148" r="12" fill="url(#d-dust)">
                <animate attributeName="opacity" values=".5; 1; .5" dur=".67s" begin="-1.16s" repeatCount="indefinite"/>
            </circle>

            <!-- dust-4 -->
            <circle cx="104" cy="148" r="12" fill="url(#e-dust)">
                <animate attributeName="opacity" values=".5; 1; .5" dur=".67s" begin="-1.24s" repeatCount="indefinite"/>
            </circle>

            <!-- dust-5 -->
            <circle cx="76" cy="112" r="12" fill="url(#f-dust)">
                <animate attributeName="opacity" values=".5; 1; .5" dur=".67s" begin="-1.32s" repeatCount="indefinite"/>
            </circle>

            <!-- dust-6 -->
            <circle cx="136" cy="112" r="12" fill="url(#g-dust)">
                <animate attributeName="opacity" values=".5; 1; .5" dur=".67s" begin="-1.40s" repeatCount="indefinite"/>
            </circle>

            <!-- dust-7 -->
            <circle cx="108" cy="80" r="12" fill="url(#h-dust)">
                <animate attributeName="opacity" values=".5; 1; .5" dur=".67s" begin="-1.48s" repeatCount="indefinite"/>
            </circle>

            <!-- dust-8 -->
            <circle cx="168" cy="80" r="12" fill="url(#i-dust)">
                <animate attributeName="opacity" values=".5; 1; .5" dur=".67s" begin="-1.56s" repeatCount="indefinite"/>
            </circle>

            <!-- dust-9 -->
            <circle cx="140" cy="44" r="12" fill="url(#j-dust)">
                <animate attributeName="opacity" values=".5; 1; .5" dur=".67s" begin="-1.64s" repeatCount="indefinite"/>
            </circle>

            <!-- dust-10 -->
            <circle cx="200" cy="44" r="12" fill="url(#k-dust)">
                <animate attributeName="opacity" values=".5; 1; .5" dur=".67s" begin="-1.72s" repeatCount="indefinite"/>
            </circle>

            <!-- dust-11 -->
            <circle cx="172" cy="12" r="12" fill="url(#l-dust)">
                <animate attributeName="opacity" values=".5; 1; .5" dur=".67s" begin="-1.80s" repeatCount="indefinite"/>
            </circle>

            <!-- dust-12 -->
            <circle cx="232" cy="12" r="12" fill="url(#m-dust)">
                <animate attributeName="opacity" values=".5; 1; .5" dur=".67s" begin="-1.88s" repeatCount="indefinite"/>
            </circle>
        </symbol>
    </defs>
    <g clip-path="url(#n-dust)">
        <use width="350" height="222" transform="translate(85 145)" xlink:href="#o-dust"/>
    </g>
    <use width="244" height="192" transform="translate(192 182)" xlink:href="#p-dust"/>
</svg>
